<svg width="187" height="89" viewBox="0 0 187 89" fill="none" xmlns="http://www.w3.org/2000/svg">
<path d="M6.84131 84.9761L23.1631 65.594C32.6385 54.3419 49.7964 53.8401 59.9133 64.519L61.4027 66.0911C70.8732 76.0878 86.9829 75.4481 95.631 64.732V64.732C104.279 54.0159 120.389 53.3763 129.859 63.3729L131.147 64.732C141.299 75.4481 158.568 74.7624 167.838 63.2751L183 44.488" stroke="#D495ED" stroke-opacity="0.4" stroke-width="10"/>
<path d="M4 44.4883L20.3218 25.1062C29.7972 13.8541 46.9551 13.3523 57.072 24.0312L58.5614 25.6034C68.0319 35.6 84.1416 34.9603 92.7896 24.2442V24.2442C101.438 13.5282 117.547 12.8885 127.018 22.8851L128.305 24.2442C138.458 34.9603 155.727 34.2746 164.997 22.7873L180.159 4.0002" stroke="#D495ED" stroke-opacity="0.4" stroke-width="10"/>
</svg>
