<svg width="117" height="86" viewBox="0 0 117 86" fill="none" xmlns="http://www.w3.org/2000/svg">
<ellipse cx="3.27459" cy="82.2827" rx="3.12895" ry="3.27459" transform="rotate(-90 3.27459 82.2827)" fill="#D2C2FF" fill-opacity="0.68"/>
<ellipse cx="3.27459" cy="55.8979" rx="3.12895" ry="3.27459" transform="rotate(-90 3.27459 55.8979)" fill="#D2C2FF" fill-opacity="0.68"/>
<ellipse cx="3.27459" cy="29.5136" rx="3.12895" ry="3.27459" transform="rotate(-90 3.27459 29.5136)" fill="#D2C2FF" fill-opacity="0.68"/>
<ellipse cx="3.27459" cy="3.12887" rx="3.12895" ry="3.27459" transform="rotate(-90 3.27459 3.12887)" fill="#D2C2FF" fill-opacity="0.68"/>
<ellipse cx="30.8874" cy="82.2827" rx="3.12895" ry="3.27459" transform="rotate(-90 30.8874 82.2827)" fill="#D2C2FF" fill-opacity="0.68"/>
<ellipse cx="30.8874" cy="55.8979" rx="3.12895" ry="3.27459" transform="rotate(-90 30.8874 55.8979)" fill="#D2C2FF" fill-opacity="0.68"/>
<ellipse cx="30.8874" cy="29.5136" rx="3.12895" ry="3.27459" transform="rotate(-90 30.8874 29.5136)" fill="#D2C2FF" fill-opacity="0.68"/>
<ellipse cx="30.8874" cy="3.12887" rx="3.12895" ry="3.27459" transform="rotate(-90 30.8874 3.12887)" fill="#D2C2FF" fill-opacity="0.68"/>
<ellipse cx="58.5002" cy="82.2827" rx="3.12895" ry="3.27459" transform="rotate(-90 58.5002 82.2827)" fill="#D2C2FF" fill-opacity="0.68"/>
<ellipse cx="58.5002" cy="55.8979" rx="3.12895" ry="3.27459" transform="rotate(-90 58.5002 55.8979)" fill="#D2C2FF" fill-opacity="0.68"/>
<ellipse cx="58.5002" cy="29.5136" rx="3.12895" ry="3.27459" transform="rotate(-90 58.5002 29.5136)" fill="#D2C2FF" fill-opacity="0.68"/>
<ellipse cx="58.5002" cy="3.12887" rx="3.12895" ry="3.27459" transform="rotate(-90 58.5002 3.12887)" fill="#D2C2FF" fill-opacity="0.68"/>
<ellipse cx="86.113" cy="82.2827" rx="3.12895" ry="3.27459" transform="rotate(-90 86.113 82.2827)" fill="#D2C2FF" fill-opacity="0.68"/>
<ellipse cx="86.113" cy="55.8979" rx="3.12895" ry="3.27459" transform="rotate(-90 86.113 55.8979)" fill="#D2C2FF" fill-opacity="0.68"/>
<ellipse cx="86.113" cy="29.5136" rx="3.12895" ry="3.27459" transform="rotate(-90 86.113 29.5136)" fill="#D2C2FF" fill-opacity="0.68"/>
<ellipse cx="86.113" cy="3.12887" rx="3.12895" ry="3.27459" transform="rotate(-90 86.113 3.12887)" fill="#D2C2FF" fill-opacity="0.68"/>
<ellipse cx="113.725" cy="82.2827" rx="3.12895" ry="3.27459" transform="rotate(-90 113.725 82.2827)" fill="#D2C2FF" fill-opacity="0.68"/>
<ellipse cx="113.725" cy="55.8979" rx="3.12895" ry="3.27459" transform="rotate(-90 113.725 55.8979)" fill="#D2C2FF" fill-opacity="0.68"/>
<ellipse cx="113.725" cy="29.5136" rx="3.12895" ry="3.27459" transform="rotate(-90 113.725 29.5136)" fill="#D2C2FF" fill-opacity="0.68"/>
<ellipse cx="113.725" cy="3.12887" rx="3.12895" ry="3.27459" transform="rotate(-90 113.725 3.12887)" fill="#D2C2FF" fill-opacity="0.68"/>
</svg>
