<svg width="187" height="89" viewBox="0 0 187 89" fill="none" xmlns="http://www.w3.org/2000/svg">
<path d="M6.84131 85L23.1631 65.6179C32.6385 54.3658 49.7964 53.864 59.9133 64.5429L61.4027 66.1151C70.8732 76.1117 86.9829 75.4721 95.631 64.756V64.756C104.279 54.0399 120.389 53.4002 129.859 63.3969L131.147 64.756C141.299 75.4721 158.568 74.7864 167.838 63.299L183 44.5119" stroke="#D8A6FF" stroke-width="10"/>
<path d="M4 44.5117L20.3218 25.1296C29.7972 13.8776 46.9551 13.3757 57.072 24.0547L58.5614 25.6268C68.0319 35.6234 84.1416 34.9838 92.7896 24.2677V24.2677C101.438 13.5516 117.547 12.9119 127.018 22.9086L128.305 24.2677C138.458 34.9838 155.727 34.2981 164.997 22.8108L180.159 4.02364" stroke="#D8A6FF" stroke-width="10"/>
</svg>
